<svg width="22" height="22" viewBox="0 0 22 22" fill="none" xmlns="http://www.w3.org/2000/svg">
<g clip-path="url(#clip0_1_712)">
<path d="M21.1693 9.08725L12.1958 9.08682C11.7995 9.08682 11.4783 9.40797 11.4783 9.80423V12.6709C11.4783 13.0671 11.7995 13.3883 12.1957 13.3883H17.2491C16.6957 14.8244 15.6629 16.027 14.3453 16.7912L16.5 20.5212C19.9565 18.5222 22 15.0147 22 11.0883C22 10.5292 21.9588 10.1296 21.8764 9.67958C21.8137 9.33767 21.5169 9.08725 21.1693 9.08725Z" fill="#167EE6"/>
<path d="M11.0001 17.6955C8.52705 17.6955 6.36813 16.3443 5.20861 14.3448L1.47867 16.4947C3.37681 19.7845 6.93265 21.9999 11.0001 21.9999C12.9954 21.9999 14.8782 21.4626 16.5001 20.5264V20.5213L14.3453 16.7911C13.3597 17.3628 12.2191 17.6955 11.0001 17.6955Z" fill="#12B347"/>
<path d="M16.5 20.5262V20.5211L14.3452 16.791C13.3596 17.3626 12.2192 17.6954 11 17.6954V21.9997C12.9953 21.9997 14.8782 21.4625 16.5 20.5262Z" fill="#0F993E"/>
<path d="M4.30435 11C4.30435 9.781 4.63702 8.64057 5.20854 7.65499L1.4786 5.5051C0.537195 7.12188 0 8.99953 0 11C0 13.0004 0.537195 14.8781 1.4786 16.4949L5.20854 14.345C4.63702 13.3594 4.30435 12.219 4.30435 11Z" fill="#FFD500"/>
<path d="M11.0001 4.30435C12.6127 4.30435 14.094 4.87738 15.2511 5.83056C15.5365 6.06568 15.9514 6.04871 16.2128 5.78725L18.244 3.75611C18.5406 3.45946 18.5195 2.97387 18.2026 2.69895C16.264 1.0172 13.7418 0 11.0001 0C6.93265 0 3.37681 2.21534 1.47867 5.50511L5.20861 7.65501C6.36813 5.65555 8.52705 4.30435 11.0001 4.30435Z" fill="#FF4B26"/>
<path d="M15.251 5.83056C15.5364 6.06568 15.9513 6.04871 16.2128 5.78725L18.2439 3.75611C18.5405 3.45946 18.5194 2.97387 18.2025 2.69895C16.264 1.01716 13.7417 0 11 0V4.30435C12.6126 4.30435 14.094 4.87738 15.251 5.83056Z" fill="#D93F21"/>
</g>
<defs>
<clipPath id="clip0_1_712">
<rect width="22" height="22" fill="white"/>
</clipPath>
</defs>
</svg>
