<svg width="21" height="17" viewBox="0 0 21 17" fill="none" xmlns="http://www.w3.org/2000/svg">
<g clip-path="url(#clip0_1_707)">
<path fill-rule="evenodd" clip-rule="evenodd" d="M1.82312 1.41777L8.03671 7.63406C9.39192 8.98665 11.6072 8.98782 12.9635 7.63406L19.1771 1.41777C19.2397 1.35519 19.2306 1.25214 19.158 1.20151C18.5242 0.759527 17.7531 0.497498 16.9225 0.497498H4.07775C3.2471 0.497498 2.47602 0.759572 1.84226 1.20151C1.76966 1.25214 1.76054 1.35519 1.82312 1.41777ZM0.162628 4.41257C0.162628 3.75941 0.324572 3.14227 0.609825 2.59984C0.654433 2.51498 0.767501 2.49782 0.835288 2.56561L6.97022 8.70055C8.91296 10.6461 12.0862 10.6472 14.0301 8.70055L20.165 2.56561C20.2328 2.49782 20.3458 2.51498 20.3905 2.59984C20.6757 3.14227 20.8377 3.75945 20.8377 4.41257V12.5855C20.8377 14.746 19.0803 16.5006 16.9225 16.5006H4.07775C1.92006 16.5006 0.162628 14.746 0.162628 12.5855V4.41257Z" fill="#5F82F0"/>
</g>
<defs>
<clipPath id="clip0_1_707">
<rect width="21" height="17" fill="white"/>
</clipPath>
</defs>
</svg>
