<svg width="115" height="64" viewBox="0 0 115 64" fill="none" xmlns="http://www.w3.org/2000/svg">
<path fill-rule="evenodd" clip-rule="evenodd" d="M17.6026 37.7385H9.13794V33.1787H30.671V37.7385H22.1875V53.3464H17.6026V37.7385Z" fill="#305DF0"/>
<path fill-rule="evenodd" clip-rule="evenodd" d="M85.4861 33.1787H105.062V53.3464H100.678V48.7345V44.5656V37.7126H89.9451V44.5656V48.7345V53.3464H85.4861V33.1787Z" fill="#305DF0"/>
<path fill-rule="evenodd" clip-rule="evenodd" d="M40.3456 48.7341H51.0782V37.7122H40.3456V48.7341ZM35.8865 53.3464H55.462V33.1787H35.8865V53.3464Z" fill="#305DF0"/>
<path fill-rule="evenodd" clip-rule="evenodd" d="M80.2593 53.3464H60.6838V33.1787H65.0679V48.8128H68.2797V41.8946H72.6634V48.8128H75.8756V33.1787H80.2593V53.3464Z" fill="#305DF0"/>
<path fill-rule="evenodd" clip-rule="evenodd" d="M70.4716 21.4731L75.8757 29.2303H80.2593L74.8553 21.4731H80.2593V9.11155H60.6839V29.2792H65.0675L70.4716 21.4731ZM65.0675 13.6451H75.8757V16.9391H68.3255L65.0675 21.4731V13.6451Z" fill="#305DF0"/>
<path fill-rule="evenodd" clip-rule="evenodd" d="M92.0614 21.4732H100.677V16.9394H92.0614V21.4732ZM89.8699 13.7237H105.062V9.11155H85.4861V29.2792H89.8699V13.7237Z" fill="#305DF0"/>
<path fill-rule="evenodd" clip-rule="evenodd" d="M35.8864 9.11155H40.3079V24.6852H51.0405V9.11155H55.4619V29.2792H35.8864V9.11155Z" fill="#305DF0"/>
<path fill-rule="evenodd" clip-rule="evenodd" d="M17.6026 13.6714H9.13792V9.11155H30.671V13.6714H22.1875V29.2792H17.6026V13.6714Z" fill="#305DF0"/>
<path fill-rule="evenodd" clip-rule="evenodd" d="M0 63.1052H114.19V0H0V63.1052ZM4.5425 58.5558H109.648V4.54938H4.5425V58.5558Z" fill="#305DF0"/>
</svg>
